<?xml version="1.0" encoding="utf-8"?>
<!-- Generator: Adobe Illustrator 24.3.0, SVG Export Plug-In . SVG Version: 6.00 Build 0)  -->
<svg version="1.1" id="Camada_1" xmlns="http://www.w3.org/2000/svg" xmlns:xlink="http://www.w3.org/1999/xlink" x="0px" y="0px"
	 viewBox="0 0 285.4 194.8" style="enable-background:new 0 0 285.4 194.8;" xml:space="preserve">
<style type="text/css">
	.st0{fill:#6B4EA5;}
</style>
<g id="Grupo_331" transform="translate(-905.47 -63.008)">
	<path id="Caminho_372" class="st0" d="M1182.4,188.3h8.5v-9.6h-8.5v-11.9h-11.1v11.9h-9.1v9.6h9.1v26.2c0,7.5,4.1,11.5,11.9,11.4
		h7.1v-10.4h-4.1c-4,0-3.8-3.5-3.8-6.1V188.3z"/>
	<path id="Caminho_373" class="st0" d="M951.3,126.8c0-29.2,24.4-53,54.4-53h60.7v70.1h11.1V63h-71.8c-36.1,0-65.5,28.7-65.5,63.8
		v17.1h11.1V126.8z"/>
	<path id="Caminho_374" class="st0" d="M1066.5,246.7H951.3v-10.9h-11.1v22h137.3v-22h-11.1L1066.5,246.7L1066.5,246.7z"/>
	<path id="Caminho_375" class="st0" d="M1108.3,179.9h-12.6l-18.2,21.4v-46h-11.1v69h11.1v-10.6l5-5.4l11.1,16h12.3l-15.6-22.7
		L1108.3,179.9z"/>
	<g id="Grupo_330" transform="translate(932.858 120.202)">
		<path id="Caminho_376" class="st0" d="M51.1,104.7c-12.4,0-22.5-10.1-22.5-22.5s10.1-22.5,22.5-22.5s22.5,10.1,22.5,22.5l0,0
			C73.6,94.6,63.5,104.7,51.1,104.7z M51.1,69.2c-7.2-0.4-13.3,5.1-13.7,12.2c-0.4,7.2,5.1,13.3,12.2,13.7
			c7.2,0.4,13.3-5.1,13.7-12.2c0-0.2,0-0.5,0-0.7C63.4,75.3,58,69.6,51.1,69.2z"/>
	</g>
	<path id="Caminho_377" class="st0" d="M940.3,155.4v28.2c-10.4-6.8-24.3-3.9-31.2,6.5s-3.9,24.4,6.5,31.2c7.5,4.9,17.2,4.9,24.7,0
		v3.7h11.1v-69.6H940.3L940.3,155.4z M928,215.4c-7.2,0.4-13.3-5.1-13.7-12.2c-0.4-7.2,5.1-13.3,12.2-13.7
		c7.2-0.4,13.3,5.1,13.7,12.2c0,0.3,0,0.5,0,0.7C940.3,209.3,934.9,215,928,215.4L928,215.4z"/>
	<path id="Caminho_378" class="st0" d="M1047.8,207.6c-2.8,6.6-10.5,9.6-17.1,6.8s-9.6-10.5-6.8-17.1s10.5-9.6,17.1-6.8
		c3.1,1.3,5.5,3.8,6.8,6.8l9.3-4.3c-5.2-11.3-18.6-16.2-29.9-11c-11.3,5.2-16.2,18.6-11,29.9c5.2,11.3,18.6,16.2,29.9,11
		c4.8-2.2,8.7-6.1,11-11L1047.8,207.6z"/>
	<path id="Caminho_379" class="st0" d="M1156.2,207.2c2.7-12.1-5-24.1-17.2-26.8c-12.1-2.7-24.1,5-26.8,17.2
		c-2.7,12.1,5,24.1,17.2,26.8c1.6,0.4,3.2,0.5,4.8,0.5c7.1,0,12.8-1.5,19.6-8.6l-7.4-5.2c-3.1,3.4-7.5,5.3-12.1,4.9
		c-5.1,0-9.5-4-11.3-8.9L1156.2,207.2L1156.2,207.2z M1134.2,189.4c5.5,0.2,10.3,4,11.7,9.3h-23.4
		C1123.9,193.4,1128.7,189.7,1134.2,189.4L1134.2,189.4z"/>
</g>
</svg>
